<mxfile host="app.diagrams.net" agent="Mozilla/5.0 (X11; Linux x86_64) AppleWebKit/537.36 (KHTML, like Gecko) Chrome/126.0.0.0 Safari/537.36" version="24.7.5">
  <diagram name="Page-1" id="Ck6rYHiyGowG9Eo74J-r">
    <mxGraphModel dx="1050" dy="573" grid="1" gridSize="10" guides="1" tooltips="1" connect="1" arrows="1" fold="1" page="1" pageScale="1" pageWidth="850" pageHeight="1100" math="0" shadow="0">
      <root>
        <mxCell id="0" />
        <mxCell id="1" parent="0" />
        <mxCell id="pq5EABY05Ha-l8sJdvqp-3" style="edgeStyle=orthogonalEdgeStyle;rounded=0;orthogonalLoop=1;jettySize=auto;html=1;entryX=-0.006;entryY=0.553;entryDx=0;entryDy=0;entryPerimeter=0;exitX=1;exitY=0.25;exitDx=0;exitDy=0;" edge="1" parent="1" source="pq5EABY05Ha-l8sJdvqp-4" target="pq5EABY05Ha-l8sJdvqp-1">
          <mxGeometry relative="1" as="geometry">
            <mxPoint x="140" y="220" as="targetPoint" />
            <mxPoint x="160" y="240" as="sourcePoint" />
            <Array as="points">
              <mxPoint x="130" y="230" />
              <mxPoint x="334" y="230" />
              <mxPoint x="334" y="256" />
            </Array>
          </mxGeometry>
        </mxCell>
        <mxCell id="pq5EABY05Ha-l8sJdvqp-7" style="edgeStyle=orthogonalEdgeStyle;rounded=0;orthogonalLoop=1;jettySize=auto;html=1;exitX=1;exitY=0.5;exitDx=0;exitDy=0;" edge="1" parent="1" source="pq5EABY05Ha-l8sJdvqp-1" target="pq5EABY05Ha-l8sJdvqp-6">
          <mxGeometry relative="1" as="geometry">
            <mxPoint x="640" y="380" as="targetPoint" />
          </mxGeometry>
        </mxCell>
        <mxCell id="pq5EABY05Ha-l8sJdvqp-1" value="" style="whiteSpace=wrap;html=1;aspect=fixed;" vertex="1" parent="1">
          <mxGeometry x="360" y="140" width="210" height="210" as="geometry" />
        </mxCell>
        <mxCell id="pq5EABY05Ha-l8sJdvqp-2" value="" style="shape=image;html=1;verticalAlign=top;verticalLabelPosition=bottom;labelBackgroundColor=#ffffff;imageAspect=0;aspect=fixed;image=https://cdn1.iconfinder.com/data/icons/unicons-line-vol-3/24/docker-128.png" vertex="1" parent="1">
          <mxGeometry x="390" y="140" width="150" height="150" as="geometry" />
        </mxCell>
        <mxCell id="pq5EABY05Ha-l8sJdvqp-4" value="Docker Build" style="rounded=0;whiteSpace=wrap;html=1;" vertex="1" parent="1">
          <mxGeometry x="40" y="200" width="120" height="60" as="geometry" />
        </mxCell>
        <mxCell id="pq5EABY05Ha-l8sJdvqp-5" value="Docker&lt;br&gt;Image" style="ellipse;whiteSpace=wrap;html=1;aspect=fixed;" vertex="1" parent="1">
          <mxGeometry x="430" y="270" width="65" height="65" as="geometry" />
        </mxCell>
        <mxCell id="pq5EABY05Ha-l8sJdvqp-6" value="" style="image;sketch=0;aspect=fixed;html=1;points=[];align=center;fontSize=12;image=img/lib/mscae/Docker.svg;" vertex="1" parent="1">
          <mxGeometry x="650" y="320" width="159.76" height="131" as="geometry" />
        </mxCell>
        <mxCell id="pq5EABY05Ha-l8sJdvqp-9" style="edgeStyle=orthogonalEdgeStyle;rounded=0;orthogonalLoop=1;jettySize=auto;html=1;" edge="1" parent="1" source="pq5EABY05Ha-l8sJdvqp-8">
          <mxGeometry relative="1" as="geometry">
            <mxPoint x="250" y="520" as="targetPoint" />
          </mxGeometry>
        </mxCell>
        <mxCell id="pq5EABY05Ha-l8sJdvqp-8" value="&lt;b&gt;&lt;font style=&quot;font-size: 23px;&quot;&gt;hub&lt;/font&gt;&lt;/b&gt;" style="rounded=0;whiteSpace=wrap;html=1;" vertex="1" parent="1">
          <mxGeometry x="654.88" y="460" width="150" height="30" as="geometry" />
        </mxCell>
        <mxCell id="pq5EABY05Ha-l8sJdvqp-11" style="edgeStyle=orthogonalEdgeStyle;rounded=0;orthogonalLoop=1;jettySize=auto;html=1;exitX=1;exitY=0.5;exitDx=0;exitDy=0;" edge="1" parent="1" source="pq5EABY05Ha-l8sJdvqp-10" target="pq5EABY05Ha-l8sJdvqp-12">
          <mxGeometry relative="1" as="geometry">
            <mxPoint x="400" y="560" as="targetPoint" />
          </mxGeometry>
        </mxCell>
        <mxCell id="pq5EABY05Ha-l8sJdvqp-10" value="docker pull" style="rounded=0;whiteSpace=wrap;html=1;" vertex="1" parent="1">
          <mxGeometry x="200" y="520" width="100" height="40" as="geometry" />
        </mxCell>
        <mxCell id="pq5EABY05Ha-l8sJdvqp-12" value="docker run" style="rounded=0;whiteSpace=wrap;html=1;" vertex="1" parent="1">
          <mxGeometry x="340" y="530" width="140" height="30" as="geometry" />
        </mxCell>
      </root>
    </mxGraphModel>
  </diagram>
</mxfile>
